<svg xmlns="http://www.w3.org/2000/svg" viewBox="0 0 1600 900" role="img" aria-labelledby="title desc">
  <title id="title">Software preview placeholder</title>
  <desc id="desc">Placeholder graphic used until final software screenshots are added.</desc>
  <defs>
    <linearGradient id="bg" x1="0%" y1="0%" x2="100%" y2="100%">
      <stop offset="0%" stop-color="#10141d"/>
      <stop offset="50%" stop-color="#161c28"/>
      <stop offset="100%" stop-color="#0b0f16"/>
    </linearGradient>
    <linearGradient id="accent" x1="0%" y1="0%" x2="100%" y2="0%">
      <stop offset="0%" stop-color="#c49040"/>
      <stop offset="100%" stop-color="#38a898"/>
    </linearGradient>
  </defs>
  <rect width="1600" height="900" fill="url(#bg)"/>
  <rect x="140" y="120" width="1320" height="660" rx="20" fill="#111723" stroke="#2a3144" stroke-width="2"/>
  <rect x="180" y="170" width="1240" height="42" rx="8" fill="#1b2230"/>
  <rect x="210" y="185" width="180" height="12" rx="6" fill="#30394d"/>
  <rect x="180" y="250" width="280" height="470" rx="14" fill="#161d29" stroke="#283043" stroke-width="2"/>
  <rect x="500" y="250" width="880" height="300" rx="14" fill="#171f2c" stroke="#283043" stroke-width="2"/>
  <rect x="500" y="580" width="420" height="140" rx="14" fill="#161d29" stroke="#283043" stroke-width="2"/>
  <rect x="960" y="580" width="420" height="140" rx="14" fill="#161d29" stroke="#283043" stroke-width="2"/>
  <path d="M580 470C660 340 760 520 860 390C980 235 1100 470 1280 320" fill="none" stroke="url(#accent)" stroke-linecap="round" stroke-width="10"/>
  <g fill="#2c364a">
    <rect x="220" y="290" width="200" height="18" rx="9"/>
    <rect x="220" y="330" width="150" height="12" rx="6"/>
    <rect x="220" y="366" width="170" height="12" rx="6"/>
    <rect x="220" y="402" width="120" height="12" rx="6"/>
    <rect x="540" y="618" width="180" height="14" rx="7"/>
    <rect x="540" y="652" width="320" height="12" rx="6"/>
    <rect x="1000" y="618" width="180" height="14" rx="7"/>
    <rect x="1000" y="652" width="320" height="12" rx="6"/>
  </g>
  <text x="800" y="728" fill="#e2ddd6" font-family="DM Sans, Arial, sans-serif" font-size="44" font-weight="600" text-anchor="middle">Preview coming soon</text>
  <text x="800" y="776" fill="#8c92a7" font-family="JetBrains Mono, monospace" font-size="22" text-anchor="middle">Final screenshots will be added as the software pages are completed.</text>
</svg>
